<?xml version="1.0" encoding="utf-8"?>
<!-- Generator: Adobe Illustrator 18.1.1, SVG Export Plug-In . SVG Version: 6.00 Build 0)  -->
<svg version="1.1" id="Layer_1" xmlns="http://www.w3.org/2000/svg" xmlns:xlink="http://www.w3.org/1999/xlink" x="0px" y="0px"
	 viewBox="0 0 216 108" enable-background="new 0 0 216 108" xml:space="preserve">
<g>
	<rect x="4.2" y="27" fill="#8DC63F" stroke="#000000" stroke-width="1.9507" stroke-miterlimit="10" width="84.5" height="31.5"/>
	<text transform="matrix(1 0 0 1 7.3458 48.4922)" font-family="'MyriadPro-Regular'" font-size="18.9">Protein #1</text>
</g>
<g>
	<ellipse fill="#27AAE1" stroke="#000000" stroke-width="2.2383" stroke-miterlimit="10" cx="106" cy="79.3" rx="47.6" ry="20.7"/>
	<text transform="matrix(1 0 0 1 65.8536 85.6074)" font-family="'MyriadPro-Regular'" font-size="18.9">Protein #2</text>
</g>
<g>
	<g>
		<path fill="#ED1C24" d="M61.5,21.3C64.1,4.7,87.3,8,97.4,14.5c5.7,3.7,10.4,9,13.2,15.2c3.1,6.9,2.1,14.8,5.3,21.6
			c4.6,9.9,16.1,13.1,25.9,15.3c11.4,2.5,27,4.8,33.3-7.9c0.6-1.1-1.1-2.1-1.7-1c-4.9,9.9-16.6,9.7-26,8c-6.6-1.2-13.5-2.6-19.6-5.6
			c-7.8-3.9-11.1-10.1-12.3-18.5c-0.9-6.4-2.3-12.3-5.9-17.8c-6.1-9.2-16.3-15.7-27.3-16.7c-9.3-0.8-21,3.3-22.7,13.7
			C59.4,22,61.3,22.6,61.5,21.3L61.5,21.3z"/>
	</g>
</g>
<text transform="matrix(1 0 0 1 114.671 27.0269)" fill="#ED1C24" font-family="'MyriadPro-Regular'" font-size="18.9">HERV-H RNA</text>
</svg>
