<?xml version="1.0" encoding="utf-8"?>
<!-- Generator: Adobe Illustrator 18.1.1, SVG Export Plug-In . SVG Version: 6.00 Build 0)  -->
<svg version="1.1" id="Layer_1" xmlns="http://www.w3.org/2000/svg" xmlns:xlink="http://www.w3.org/1999/xlink" x="0px" y="0px"
	 viewBox="0 0 360 180" enable-background="new 0 0 360 180" xml:space="preserve">
<path fill="none" stroke="#662D91" stroke-width="1.1" stroke-miterlimit="10" d="M191.5,80.9c5.1,2.6,10.8-1.5,12.8-4.1
	c2.2-2.8,4.4-6.6,10.4-6.8c6.2-0.2,8.6,2.9,9.2,6.2c0.8,3.9,4.2,6,10.8,5.1c6.9-1,13.6-4,18.4-7.1"/>
<path fill="none" stroke="#662D91" stroke-width="1.1" stroke-miterlimit="10" d="M74,84.4c2.8-4.1,5.9-8.1,9.2-11.7
	c2.6-2.9,6.4-8.3,10.6-7.4c3.9,0.9,6.5,7.2,8.6,10.4c2.2,3.4,4.5,7.7,8.2,9.4c4.2,1.9,7.7-1.4,9.6-5.5"/>
<path fill="none" stroke="#8DC63F" stroke-width="1.1" stroke-miterlimit="10" d="M49.8,29.1c2.3-3.9,4.8-7.5,7.5-10.8
	c1.1-1.3,2.5-2.7,4-2.3c1.2,0.3,2.1,1.8,2.8,3.1c1.1,1.9,2.1,3.8,3.2,5.8c1.4,2.5,3.2,5.4,5.6,5.1c2.3-0.3,3.8-3.5,4.5-6.4
	s1.3-6.2,3.2-8.1c1.7-1.7,4.2-1.5,6-0.1c1.8,1.5,3,4,3.6,6.8c0.5,2.4,0.7,5.3,2.3,6.6c2.2,1.8,4.9-1.1,6.1-4.1c1.2-3,2-6.7,4.3-8.2
	c2.1-1.4,5,0,5.9,2.9c0.9,2.6,0.2,6.1,1.7,8.2c1.5,2.3,4.3,1.7,6.3,0.5c3.1-1.7,5.9-4.2,8.2-7.4"/>
<text transform="matrix(1 0 0 1 70.2988 11.3809)" font-family="'ArialMT'" font-size="11">Viral RNA</text>
<g>
	<line x1="108.5" y1="34" x2="125" y2="63.2"/>
	<g>
		<line fill="none" stroke="#000000" stroke-width="0.8388" stroke-miterlimit="10" x1="108.5" y1="34" x2="122.5" y2="58.8"/>
		<g>
			<path d="M125,63.2c-1.9-1.6-4.7-3.5-7-4.3l4.2-0.7L125,55C124.5,57.4,124.6,60.7,125,63.2z"/>
		</g>
	</g>
</g>
<text transform="matrix(1 0 0 1 130.0386 48.5855)" font-family="'ArialMT'" font-size="11">Integration</text>
<text transform="matrix(1 0 0 1 93 111.8643)"><tspan x="0" y="0" font-family="'ArialMT'" font-size="11">Host machinery makes viral proteins</tspan><tspan x="0" y="13.2" font-family="'ArialMT'" font-size="11">to product a new virus. </tspan></text>
<rect x="117.3" y="142.5" fill="#8DC63F" stroke="#000000" stroke-width="1.1" stroke-miterlimit="10" width="16.4" height="15.2"/>
<ellipse fill="#8DC63F" stroke="#000000" stroke-width="1.1" stroke-miterlimit="10" cx="170.5" cy="153.9" rx="6.9" ry="3.8"/>
<rect x="116.8" y="72.1" fill="#8DC63F" stroke="#000000" stroke-width="1.1" stroke-miterlimit="10" width="76.1" height="14.8"/>
<path fill="none" stroke="#662D91" stroke-width="1.1" stroke-miterlimit="10" d="M249.7,85.4c-3.7-3.1-7.4-6.2-9.9-10.3
	c-0.6-0.9-1.1-1.9-1.7-2.7c-2.1-2.6-5.8-3.7-9.1-3.1s-6.1,3-7.9,5.8c-0.9,1.5-1.5,3.2-2.9,4.3c-1.2,1-2.7,1.4-4.1,1.7
	c-4.2,1-9,2-12.6-0.4c-3.3-2.2-5.4-7-9.4-6.7"/>
<path fill="none" stroke="#662D91" stroke-width="1.1" stroke-miterlimit="10" d="M115.7,76.4c-4.4-4-11-5.4-16.6-3.3
	c-2.2,0.8-4.1,2.1-6.2,3.1c-3,1.5-6.4,2.4-9.7,2.1s-6.7-2-8.4-4.9c-1.5-2.4-2-5.8-4.5-7.1"/>
<text transform="matrix(1 0 0 1 262.5156 81.7153)" fill="#662D91" font-family="'ArialMT'" font-size="11">host DNA</text>
<text transform="matrix(1 0 0 1 134.2681 82.815)" font-family="'ArialMT'" font-size="11">provirus</text>
<g>
	<line x1="149.1" y1="128.8" x2="149.6" y2="154.3"/>
	<g>
		<line fill="none" stroke="#000000" stroke-width="0.7314" stroke-miterlimit="10" x1="149.1" y1="128.8" x2="149.5" y2="149.9"/>
		<g>
			<path d="M149.6,154.3c-0.8-2.1-2.2-4.6-3.6-6.2l3.5,1.2l3.5-1.3C151.6,149.6,150.3,152.2,149.6,154.3z"/>
		</g>
	</g>
</g>
<rect x="142.4" y="163.8" fill="#8DC63F" stroke="#000000" stroke-width="1.1" stroke-miterlimit="10" width="16.4" height="15.2"/>
<ellipse fill="#8DC63F" stroke="#000000" stroke-width="1.1" stroke-miterlimit="10" cx="120.2" cy="167.6" rx="6.9" ry="3.8"/>
</svg>
