<?xml version="1.0" encoding="utf-8"?>
<!-- Generator: Adobe Illustrator 18.1.1, SVG Export Plug-In . SVG Version: 6.00 Build 0)  -->
<svg version="1.1" id="Layer_1" xmlns="http://www.w3.org/2000/svg" xmlns:xlink="http://www.w3.org/1999/xlink" x="0px" y="0px"
	 viewBox="0 0 360 180" enable-background="new 0 0 360 180" xml:space="preserve">
<rect x="180" y="-0.2" opacity="0.3" fill="#00AEEF" width="180" height="179.6"/>
<g>
	<ellipse fill="#ED1C24" stroke="#ED1C24" stroke-width="0.9403" stroke-miterlimit="10" cx="220.3" cy="44.3" rx="7.7" ry="8.1"/>
	<line fill="#ED1C24" stroke="#ED1C24" stroke-width="0.9403" stroke-miterlimit="10" x1="220.3" y1="52.4" x2="220.3" y2="85"/>
	<line fill="#ED1C24" stroke="#ED1C24" stroke-width="0.9403" stroke-miterlimit="10" x1="220.3" y1="60.8" x2="228.1" y2="70.3"/>
	<line fill="#ED1C24" stroke="#ED1C24" stroke-width="0.9403" stroke-miterlimit="10" x1="220.3" y1="85" x2="228.1" y2="88.9"/>
	<line fill="#ED1C24" stroke="#ED1C24" stroke-width="0.9403" stroke-miterlimit="10" x1="220.3" y1="85" x2="212.6" y2="88.9"/>
	<line fill="#ED1C24" stroke="#ED1C24" stroke-width="0.9403" stroke-miterlimit="10" x1="220.3" y1="60.8" x2="212.6" y2="70.3"/>
</g>
<text transform="matrix(1 0 0 1 243.6426 26.8867)" fill="#ED1C24" font-family="'ArialMT'" font-size="8.8">germline infection</text>
<g>
	<ellipse fill="#ED1C24" stroke="#ED1C24" stroke-width="0.7052" stroke-miterlimit="10" cx="196.8" cy="129.2" rx="5.8" ry="6.1"/>
	
		<line fill="#ED1C24" stroke="#ED1C24" stroke-width="0.7052" stroke-miterlimit="10" x1="196.8" y1="135.3" x2="196.8" y2="159.7"/>
	
		<line fill="#ED1C24" stroke="#ED1C24" stroke-width="0.7052" stroke-miterlimit="10" x1="196.8" y1="141.6" x2="202.6" y2="148.7"/>
	
		<line fill="#ED1C24" stroke="#ED1C24" stroke-width="0.7052" stroke-miterlimit="10" x1="196.8" y1="159.7" x2="202.6" y2="162.7"/>
	
		<line fill="#ED1C24" stroke="#ED1C24" stroke-width="0.7052" stroke-miterlimit="10" x1="196.8" y1="159.7" x2="190.9" y2="162.7"/>
	
		<line fill="#ED1C24" stroke="#ED1C24" stroke-width="0.7052" stroke-miterlimit="10" x1="196.8" y1="141.6" x2="190.9" y2="148.7"/>
</g>
<g>
	<ellipse fill="#ED1C24" stroke="#ED1C24" stroke-width="0.7052" stroke-miterlimit="10" cx="223.2" cy="129.2" rx="5.8" ry="6.1"/>
	
		<line fill="#ED1C24" stroke="#ED1C24" stroke-width="0.7052" stroke-miterlimit="10" x1="223.2" y1="135.3" x2="223.2" y2="159.7"/>
	<line fill="#ED1C24" stroke="#ED1C24" stroke-width="0.7052" stroke-miterlimit="10" x1="223.2" y1="141.6" x2="229" y2="148.7"/>
	<line fill="#ED1C24" stroke="#ED1C24" stroke-width="0.7052" stroke-miterlimit="10" x1="223.2" y1="159.7" x2="229" y2="162.7"/>
	
		<line fill="#ED1C24" stroke="#ED1C24" stroke-width="0.7052" stroke-miterlimit="10" x1="223.2" y1="159.7" x2="217.4" y2="162.7"/>
	
		<line fill="#ED1C24" stroke="#ED1C24" stroke-width="0.7052" stroke-miterlimit="10" x1="223.2" y1="141.6" x2="217.4" y2="148.7"/>
</g>
<g>
	<ellipse fill="#ED1C24" stroke="#ED1C24" stroke-width="0.7052" stroke-miterlimit="10" cx="247.4" cy="129.2" rx="5.8" ry="6.1"/>
	
		<line fill="#ED1C24" stroke="#ED1C24" stroke-width="0.7052" stroke-miterlimit="10" x1="247.4" y1="135.3" x2="247.4" y2="159.7"/>
	
		<line fill="#ED1C24" stroke="#ED1C24" stroke-width="0.7052" stroke-miterlimit="10" x1="247.4" y1="141.6" x2="253.2" y2="148.7"/>
	
		<line fill="#ED1C24" stroke="#ED1C24" stroke-width="0.7052" stroke-miterlimit="10" x1="247.4" y1="159.7" x2="253.2" y2="162.7"/>
	
		<line fill="#ED1C24" stroke="#ED1C24" stroke-width="0.7052" stroke-miterlimit="10" x1="247.4" y1="159.7" x2="241.6" y2="162.7"/>
	
		<line fill="#ED1C24" stroke="#ED1C24" stroke-width="0.7052" stroke-miterlimit="10" x1="247.4" y1="141.6" x2="241.6" y2="148.7"/>
</g>
<g>
	<ellipse stroke="#000000" stroke-width="0.9403" stroke-miterlimit="10" cx="336.2" cy="46" rx="7.7" ry="8.1"/>
	<line stroke="#000000" stroke-width="0.9403" stroke-miterlimit="10" x1="336.2" y1="54.1" x2="336.2" y2="86.7"/>
	<line stroke="#000000" stroke-width="0.9403" stroke-miterlimit="10" x1="336.2" y1="62.4" x2="344" y2="72"/>
	<line stroke="#000000" stroke-width="0.9403" stroke-miterlimit="10" x1="336.2" y1="86.7" x2="344" y2="90.6"/>
	<line stroke="#000000" stroke-width="0.9403" stroke-miterlimit="10" x1="336.2" y1="86.7" x2="328.5" y2="90.6"/>
	<line stroke="#000000" stroke-width="0.9403" stroke-miterlimit="10" x1="336.2" y1="62.4" x2="328.5" y2="72"/>
</g>
<g>
	<line x1="262.1" y1="82.9" x2="308.3" y2="82.9"/>
	<g>
		<line fill="none" stroke="#000000" stroke-width="0.88" stroke-miterlimit="10" x1="262.1" y1="82.9" x2="302.9" y2="82.9"/>
		<g>
			<path d="M308.3,82.9c-2.5,0.9-5.6,2.5-7.5,4.2l1.5-4.2l-1.5-4.2C302.7,80.4,305.8,82,308.3,82.9z"/>
		</g>
	</g>
</g>
<text transform="matrix(1 0 0 1 247.4707 51.7676)"><tspan x="0" y="0" font-family="'ArialMT'" font-size="8.8">No transmission </tspan><tspan x="0" y="10.6" font-family="'ArialMT'" font-size="8.8">between unrelated</tspan><tspan x="0" y="21.1" font-family="'ArialMT'" font-size="8.8">people. </tspan></text>
<g>
	<line fill="none" stroke="#ED1C24" stroke-width="1.76" stroke-miterlimit="10" x1="269" y1="75.8" x2="294.3" y2="87.9"/>
	<line fill="none" stroke="#ED1C24" stroke-width="1.76" stroke-miterlimit="10" x1="294.3" y1="75.8" x2="269" y2="87.9"/>
</g>
<g>
	<line x1="226.9" y1="94.9" x2="240.2" y2="118.2"/>
	<g>
		<line fill="none" stroke="#000000" stroke-width="0.671" stroke-miterlimit="10" x1="226.9" y1="94.9" x2="238.2" y2="114.7"/>
		<g>
			<path d="M240.2,118.2c-1.6-1.3-3.8-2.8-5.6-3.4l3.3-0.6l2.2-2.6C239.7,113.6,239.8,116.2,240.2,118.2z"/>
		</g>
	</g>
</g>
<g>
	<line x1="216.6" y1="95.7" x2="198.6" y2="115.7"/>
	<g>
		<line fill="none" stroke="#000000" stroke-width="0.671" stroke-miterlimit="10" x1="216.6" y1="95.7" x2="201.4" y2="112.7"/>
		<g>
			<path d="M198.6,115.7c0.7-1.9,1.4-4.5,1.5-6.4l1.6,3l3.1,1.3C202.9,113.8,200.4,114.7,198.6,115.7z"/>
		</g>
	</g>
</g>
<g>
	<line x1="221" y1="94.9" x2="221.4" y2="121.7"/>
	<g>
		<line fill="none" stroke="#000000" stroke-width="0.671" stroke-miterlimit="10" x1="221" y1="94.9" x2="221.4" y2="117.7"/>
		<g>
			<path d="M221.4,121.7c-0.7-1.9-2-4.2-3.3-5.7l3.2,1.1l3.2-1.2C223.3,117.4,222.1,119.8,221.4,121.7z"/>
		</g>
	</g>
</g>
<text transform="matrix(1 0 0 1 202.5576 10.9678)"><tspan x="0" y="0" font-family="'Arial-BoldMT'" font-size="8.8">(B) Vertical transmission of virus</tspan><tspan x="137.9" y="0" font-family="'ArialMT'" font-size="8.8">.</tspan></text>
<text transform="matrix(1 0 0 1 229.0371 174.3037)" font-family="'ArialMT'" font-size="8.8">Examples: ERVs. </text>
<rect y="-0.2" opacity="0.3" fill="#EC008C" width="180" height="179.6"/>
<text transform="matrix(1 0 0 1 67.0903 26.8867)" fill="#ED1C24" font-family="'ArialMT'" font-size="8.8">somatic infection</text>
<g>
	<line x1="84.5" y1="77.4" x2="130.7" y2="77.4"/>
	<g>
		<line fill="none" stroke="#000000" stroke-width="0.88" stroke-miterlimit="10" x1="84.5" y1="77.4" x2="125.4" y2="77.4"/>
		<g>
			<path d="M130.7,77.4c-2.5,0.9-5.6,2.5-7.5,4.2l1.5-4.2l-1.5-4.2C125.1,74.9,128.2,76.5,130.7,77.4z"/>
		</g>
	</g>
</g>
<text transform="matrix(1 0 0 1 69.896 46.2842)"><tspan x="0" y="0" font-family="'ArialMT'" font-size="8.8">Transmission </tspan><tspan x="0" y="10.6" font-family="'ArialMT'" font-size="8.8">between unrelated</tspan><tspan x="0" y="21.1" font-family="'ArialMT'" font-size="8.8">people. </tspan></text>
<text transform="matrix(1 0 0 1 93.0395 115.3848)"><tspan x="0" y="0" font-family="'ArialMT'" font-size="8.8">No transmission </tspan><tspan x="0" y="10.6" font-family="'ArialMT'" font-size="8.8">(via genome)</tspan><tspan x="0" y="21.1" font-family="'ArialMT'" font-size="8.8">to children. </tspan></text>
<text transform="matrix(1 0 0 1 12.2388 10.9678)"><tspan x="0" y="0" font-family="'Arial-BoldMT'" font-size="8.8">(A) Hortizonal transmission of virus</tspan><tspan x="149.1" y="0" font-family="'ArialMT'" font-size="8.8">.</tspan></text>
<g>
	<ellipse fill="#ED1C24" stroke="#ED1C24" stroke-width="0.9403" stroke-miterlimit="10" cx="53.1" cy="41.8" rx="7.7" ry="8.1"/>
	<line fill="#ED1C24" stroke="#ED1C24" stroke-width="0.9403" stroke-miterlimit="10" x1="53.1" y1="49.9" x2="53.1" y2="82.5"/>
	<line fill="#ED1C24" stroke="#ED1C24" stroke-width="0.9403" stroke-miterlimit="10" x1="53.1" y1="58.3" x2="60.8" y2="67.8"/>
	<line fill="#ED1C24" stroke="#ED1C24" stroke-width="0.9403" stroke-miterlimit="10" x1="53.1" y1="82.5" x2="60.8" y2="86.5"/>
	<line fill="#ED1C24" stroke="#ED1C24" stroke-width="0.9403" stroke-miterlimit="10" x1="53.1" y1="82.5" x2="45.4" y2="86.5"/>
	<line fill="#ED1C24" stroke="#ED1C24" stroke-width="0.9403" stroke-miterlimit="10" x1="53.1" y1="58.3" x2="45.4" y2="67.8"/>
</g>
<g>
	<ellipse fill="#ED1C24" stroke="#ED1C24" stroke-width="0.9403" stroke-miterlimit="10" cx="150.3" cy="41.8" rx="7.7" ry="8.1"/>
	<line fill="#ED1C24" stroke="#ED1C24" stroke-width="0.9403" stroke-miterlimit="10" x1="150.3" y1="49.9" x2="150.3" y2="82.5"/>
	<line fill="#ED1C24" stroke="#ED1C24" stroke-width="0.9403" stroke-miterlimit="10" x1="150.3" y1="58.3" x2="158" y2="67.8"/>
	<line fill="#ED1C24" stroke="#ED1C24" stroke-width="0.9403" stroke-miterlimit="10" x1="150.3" y1="82.5" x2="158" y2="86.5"/>
	<line fill="#ED1C24" stroke="#ED1C24" stroke-width="0.9403" stroke-miterlimit="10" x1="150.3" y1="82.5" x2="142.5" y2="86.5"/>
	<line fill="#ED1C24" stroke="#ED1C24" stroke-width="0.9403" stroke-miterlimit="10" x1="150.3" y1="58.3" x2="142.5" y2="67.8"/>
</g>
<g>
	<ellipse stroke="#000000" stroke-width="0.7052" stroke-miterlimit="10" cx="29.8" cy="124.6" rx="5.8" ry="6.1"/>
	<line stroke="#000000" stroke-width="0.7052" stroke-miterlimit="10" x1="29.8" y1="130.7" x2="29.8" y2="155.1"/>
	<line stroke="#000000" stroke-width="0.7052" stroke-miterlimit="10" x1="29.8" y1="137" x2="35.6" y2="144.1"/>
	<line stroke="#000000" stroke-width="0.7052" stroke-miterlimit="10" x1="29.8" y1="155.1" x2="35.6" y2="158.1"/>
	<line stroke="#000000" stroke-width="0.7052" stroke-miterlimit="10" x1="29.8" y1="155.1" x2="24" y2="158.1"/>
	<line stroke="#000000" stroke-width="0.7052" stroke-miterlimit="10" x1="29.8" y1="137" x2="24" y2="144.1"/>
</g>
<g>
	<ellipse stroke="#000000" stroke-width="0.7052" stroke-miterlimit="10" cx="56.3" cy="124.6" rx="5.8" ry="6.1"/>
	<line stroke="#000000" stroke-width="0.7052" stroke-miterlimit="10" x1="56.3" y1="130.7" x2="56.3" y2="155.1"/>
	<line stroke="#000000" stroke-width="0.7052" stroke-miterlimit="10" x1="56.3" y1="137" x2="62.1" y2="144.1"/>
	<line stroke="#000000" stroke-width="0.7052" stroke-miterlimit="10" x1="56.3" y1="155.1" x2="62.1" y2="158.1"/>
	<line stroke="#000000" stroke-width="0.7052" stroke-miterlimit="10" x1="56.3" y1="155.1" x2="50.5" y2="158.1"/>
	<line stroke="#000000" stroke-width="0.7052" stroke-miterlimit="10" x1="56.3" y1="137" x2="50.5" y2="144.1"/>
</g>
<g>
	<ellipse stroke="#000000" stroke-width="0.7052" stroke-miterlimit="10" cx="80.5" cy="124.6" rx="5.8" ry="6.1"/>
	<line stroke="#000000" stroke-width="0.7052" stroke-miterlimit="10" x1="80.5" y1="130.7" x2="80.5" y2="155.1"/>
	<line stroke="#000000" stroke-width="0.7052" stroke-miterlimit="10" x1="80.5" y1="137" x2="86.3" y2="144.1"/>
	<line stroke="#000000" stroke-width="0.7052" stroke-miterlimit="10" x1="80.5" y1="155.1" x2="86.3" y2="158.1"/>
	<line stroke="#000000" stroke-width="0.7052" stroke-miterlimit="10" x1="80.5" y1="155.1" x2="74.6" y2="158.1"/>
	<line stroke="#000000" stroke-width="0.7052" stroke-miterlimit="10" x1="80.5" y1="137" x2="74.6" y2="144.1"/>
</g>
<g>
	<line x1="60" y1="90.3" x2="73.2" y2="113.6"/>
	<g>
		<line fill="none" stroke="#000000" stroke-width="0.671" stroke-miterlimit="10" x1="60" y1="90.3" x2="71.2" y2="110.1"/>
		<g>
			<path d="M73.2,113.6c-1.6-1.3-3.8-2.8-5.6-3.4l3.3-0.6l2.2-2.6C72.7,109,72.9,111.6,73.2,113.6z"/>
		</g>
	</g>
</g>
<g>
	<line x1="49.6" y1="91.1" x2="31.7" y2="111.1"/>
	<g>
		<line fill="none" stroke="#000000" stroke-width="0.671" stroke-miterlimit="10" x1="49.6" y1="91.1" x2="34.4" y2="108"/>
		<g>
			<path d="M31.7,111.1c0.7-1.9,1.4-4.5,1.5-6.4l1.6,3l3.1,1.3C36,109.2,33.5,110.1,31.7,111.1z"/>
		</g>
	</g>
</g>
<g>
	<line x1="54" y1="90.3" x2="54.5" y2="117.1"/>
	<g>
		<line fill="none" stroke="#000000" stroke-width="0.671" stroke-miterlimit="10" x1="54" y1="90.3" x2="54.4" y2="113.1"/>
		<g>
			<path d="M54.5,117.1c-0.7-1.9-2-4.2-3.3-5.7l3.2,1.1l3.2-1.2C56.3,112.8,55.1,115.2,54.5,117.1z"/>
		</g>
	</g>
</g>
<text transform="matrix(1 0 0 1 26.8774 174.3037)" font-family="'ArialMT'" font-size="8.8">Examples: cold or flu virus, HIV. </text>
<g>
	<line fill="none" stroke="#ED1C24" stroke-width="2.222" stroke-miterlimit="10" x1="37.7" y1="87.4" x2="69" y2="102.8"/>
	<line fill="none" stroke="#ED1C24" stroke-width="2.222" stroke-miterlimit="10" x1="69" y1="87.4" x2="37.7" y2="102.8"/>
</g>
<text transform="matrix(1 0 0 1 262.1103 124.5928)"><tspan x="0" y="0" font-family="'ArialMT'" font-size="8.8">Transmission via</tspan><tspan x="0" y="10.6" font-family="'ArialMT'" font-size="8.8">genome to children.</tspan></text>
</svg>
